<svg width="300" height="46" viewBox="0 0 300 46" fill="none" xmlns="http://www.w3.org/2000/svg">
<path d="M22.3484 1.71911V5.15732C22.3484 5.61326 22.1673 6.05052 21.8449 6.37292C21.5225 6.69531 21.0852 6.87643 20.6293 6.87643C20.1734 6.87643 19.7361 6.69531 19.4137 6.37292C19.0913 6.05052 18.9102 5.61326 18.9102 5.15732V1.71911C18.9102 1.26317 19.0913 0.82591 19.4137 0.503515C19.7361 0.18112 20.1734 0 20.6293 0C21.0852 0 21.5225 0.18112 21.8449 0.503515C22.1673 0.82591 22.3484 1.26317 22.3484 1.71911ZM20.6293 34.3822C20.1734 34.3822 19.7361 34.5633 19.4137 34.8857C19.0913 35.2081 18.9102 35.6453 18.9102 36.1013V39.5395C18.9102 39.9954 19.0913 40.4327 19.4137 40.7551C19.7361 41.0775 20.1734 41.2586 20.6293 41.2586C21.0852 41.2586 21.5225 41.0775 21.8449 40.7551C22.1673 40.4327 22.3484 39.9954 22.3484 39.5395V36.1013C22.3484 35.6453 22.1673 35.2081 21.8449 34.8857C21.5225 34.5633 21.0852 34.3822 20.6293 34.3822ZM6.87643 20.6293C6.87643 20.1734 6.69531 19.7361 6.37292 19.4137C6.05052 19.0913 5.61326 18.9102 5.15732 18.9102H1.71911C1.26317 18.9102 0.82591 19.0913 0.503515 19.4137C0.18112 19.7361 0 20.1734 0 20.6293C0 21.0852 0.18112 21.5225 0.503515 21.8449C0.82591 22.1673 1.26317 22.3484 1.71911 22.3484H5.15732C5.61326 22.3484 6.05052 22.1673 6.37292 21.8449C6.69531 21.5225 6.87643 21.0852 6.87643 20.6293ZM39.5395 18.9102H36.1013C35.6453 18.9102 35.2081 19.0913 34.8857 19.4137C34.5633 19.7361 34.3822 20.1734 34.3822 20.6293C34.3822 21.0852 34.5633 21.5225 34.8857 21.8449C35.2081 22.1673 35.6453 22.3484 36.1013 22.3484H39.5395C39.9954 22.3484 40.4327 22.1673 40.7551 21.8449C41.0775 21.5225 41.2586 21.0852 41.2586 20.6293C41.2586 20.1734 41.0775 19.7361 40.7551 19.4137C40.4327 19.0913 39.9954 18.9102 39.5395 18.9102ZM30.9749 2.78152C30.7795 2.66823 30.5637 2.59455 30.3399 2.56469C30.116 2.53483 29.8885 2.54937 29.6702 2.60749C29.452 2.6656 29.2473 2.76614 29.068 2.90337C28.8886 3.0406 28.738 3.21183 28.6249 3.40727L26.9058 6.38305C26.6777 6.77768 26.6156 7.24675 26.7333 7.68711C26.851 8.12748 27.1387 8.50309 27.5332 8.73135C27.794 8.88384 28.0907 8.96396 28.3928 8.96343C28.6945 8.96342 28.991 8.88398 29.2523 8.7331C29.5136 8.58222 29.7307 8.36521 29.8815 8.10388L31.6006 5.1281C31.8283 4.73383 31.8903 4.26533 31.773 3.82541C31.6557 3.38548 31.3687 3.01006 30.9749 2.78152ZM13.7305 32.5272C13.3361 32.299 12.8672 32.2367 12.4268 32.354C11.9865 32.4714 11.6108 32.7587 11.3822 33.153L9.66311 36.1288C9.43486 36.5232 9.37256 36.9921 9.4899 37.4324C9.60724 37.8728 9.89461 38.2485 10.2889 38.4771C10.5497 38.6294 10.8464 38.7095 11.1484 38.7092C11.4505 38.7094 11.7473 38.6301 12.0089 38.4793C12.2706 38.3284 12.4879 38.1112 12.6389 37.8496L14.358 34.8738C14.5855 34.4793 14.6473 34.0107 14.5296 33.5707C14.412 33.1308 14.1246 32.7555 13.7305 32.5272ZM8.10559 11.3822L5.12982 9.66311C4.73623 9.4513 4.27563 9.40111 3.84566 9.52318C3.4157 9.64524 3.05018 9.92997 2.8266 10.317C2.60302 10.704 2.53896 11.1629 2.648 11.5963C2.75704 12.0298 3.03061 12.4037 3.41071 12.6389L6.38649 14.358C6.78007 14.5698 7.24067 14.62 7.67064 14.4979C8.10061 14.3759 8.46613 14.0911 8.68971 13.7041C8.91329 13.3171 8.97735 12.8582 8.8683 12.4248C8.75926 11.9913 8.48569 11.6174 8.10559 11.3822ZM37.8462 28.6249L34.8704 26.9058C34.4768 26.694 34.0162 26.6438 33.5862 26.7658C33.1563 26.8879 32.7907 27.1726 32.5672 27.5596C32.3436 27.9467 32.2795 28.4055 32.3886 28.839C32.4976 29.2724 32.7712 29.6464 33.1513 29.8815L36.1271 31.6006C36.3878 31.7531 36.6845 31.8333 36.9866 31.8327C37.365 31.8327 37.7329 31.7078 38.0331 31.4775C38.3333 31.2471 38.5491 30.9241 38.6471 30.5586C38.745 30.193 38.7196 29.8054 38.5748 29.4558C38.43 29.1062 38.1739 28.8141 37.8462 28.6249ZM12.6337 3.40727C12.3986 3.02717 12.0246 2.7536 11.5912 2.64456C11.1577 2.53552 10.6988 2.59958 10.3118 2.82316C9.92481 3.04674 9.64009 3.41226 9.51802 3.84223C9.39595 4.27219 9.44614 4.73279 9.65795 5.12638L11.3771 8.10215C11.5279 8.36349 11.7449 8.5805 12.0063 8.73138C12.2676 8.88226 12.564 8.9617 12.8658 8.96171C13.1679 8.96224 13.4646 8.88212 13.7254 8.72963C14.1199 8.50137 14.4076 8.12576 14.5253 7.6854C14.643 7.24503 14.5809 6.77596 14.3528 6.38133L12.6337 3.40727ZM29.8764 33.1478C29.6412 32.7677 29.2673 32.4942 28.8338 32.3851C28.4004 32.2761 27.9415 32.3401 27.5545 32.5637C27.1675 32.7873 26.8827 33.1528 26.7607 33.5828C26.6386 34.0128 26.6888 34.4734 26.9006 34.8669L28.6197 37.8427C28.8549 38.2228 29.2288 38.4964 29.6623 38.6054C30.0957 38.7145 30.5546 38.6504 30.9416 38.4268C31.3286 38.2033 31.6133 37.8377 31.7354 37.4078C31.8575 36.9778 31.8073 36.5172 31.5955 36.1236L29.8764 33.1478ZM34.016 14.5815C34.3178 14.5815 34.6142 14.502 34.8755 14.3511L37.8513 12.632C38.2314 12.3969 38.505 12.0229 38.614 11.5895C38.7231 11.156 38.659 10.6971 38.4354 10.3101C38.2118 9.92309 37.8463 9.63837 37.4164 9.5163C36.9864 9.39423 36.5258 9.44442 36.1322 9.65623L33.1564 11.3753C32.8296 11.5649 32.5743 11.857 32.4301 12.2062C32.2858 12.5555 32.2607 12.9425 32.3586 13.3075C32.4564 13.6725 32.6718 13.9951 32.9714 14.2254C33.271 14.4557 33.6381 14.5808 34.016 14.5815ZM6.38305 26.9006L3.40727 28.6197C3.07956 28.8089 2.82344 29.101 2.67863 29.4506C2.53383 29.8002 2.50843 30.1879 2.60637 30.5534C2.70432 30.9189 2.92013 31.2419 3.22035 31.4723C3.52056 31.7027 3.88841 31.8275 4.26683 31.8276C4.56889 31.8281 4.86563 31.748 5.12638 31.5955L8.10215 29.8764C8.48225 29.6412 8.75582 29.2673 8.86487 28.8338C8.97391 28.4004 8.90985 27.9415 8.68627 27.5545C8.46269 27.1675 8.09717 26.8827 7.6672 26.7607C7.23724 26.6386 6.77663 26.6888 6.38305 26.9006Z" fill="white"/>
<path d="M85.9279 34.3822H80.1517L67.0727 14.6193V34.3822H61.2965V5.5424H67.0727L80.1517 25.3465V5.5424H85.9279V34.3822Z" fill="white"/>
<path d="M108.181 5.58366V10.2459H96.1745V17.6312H105.375V22.2109H96.1745V34.3822H90.3983V5.58366H108.181Z" fill="white"/>
<path d="M130.637 5.58366V10.2459H122.963V34.3822H117.186V10.2459H109.512V5.58366H130.637Z" fill="white"/>
<path d="M147.983 14.8256C148.726 13.7804 149.743 12.9139 151.036 12.2263C152.356 11.5111 153.856 11.1536 155.533 11.1536C157.486 11.1536 159.247 11.6349 160.814 12.5976C162.41 13.5603 163.661 14.9356 164.569 16.7235C165.504 18.4838 165.972 20.533 165.972 22.871C165.972 25.209 165.504 27.2857 164.569 29.1011C163.661 30.8889 162.41 32.278 160.814 33.2682C159.247 34.2584 157.486 34.7535 155.533 34.7535C153.856 34.7535 152.37 34.4097 151.077 33.722C149.812 33.0344 148.781 32.1679 147.983 31.1227V45.2744H142.207V11.5249H147.983V14.8256ZM160.072 22.871C160.072 21.4957 159.783 20.313 159.205 19.3228C158.655 18.3051 157.913 17.5349 156.977 17.0123C156.07 16.4897 155.08 16.2284 154.007 16.2284C152.962 16.2284 151.971 16.5034 151.036 17.0536C150.129 17.5762 149.386 18.3463 148.808 19.364C148.258 20.3817 147.983 21.5782 147.983 22.9535C147.983 24.3288 148.258 25.5253 148.808 26.543C149.386 27.5607 150.129 28.3447 151.036 28.8948C151.971 29.4174 152.962 29.6787 154.007 29.6787C155.08 29.6787 156.07 29.4036 156.977 28.8535C157.913 28.3034 158.655 27.5195 159.205 26.5018C159.783 25.4841 160.072 24.2738 160.072 22.871Z" fill="white"/>
<path d="M174.708 15.0731C175.45 13.8629 176.413 12.9139 177.596 12.2263C178.806 11.5387 180.181 11.1948 181.722 11.1948V17.2598H180.195C178.38 17.2598 177.004 17.6862 176.069 18.5389C175.162 19.3915 174.708 20.8768 174.708 22.9948V34.3822H168.931V11.5249H174.708V15.0731Z" fill="white"/>
<path d="M194.524 34.7535C192.324 34.7535 190.343 34.2721 188.583 33.3094C186.822 32.3192 185.433 30.9302 184.416 29.1423C183.425 27.3544 182.93 25.2915 182.93 22.9535C182.93 20.6155 183.439 18.5526 184.457 16.7647C185.502 14.9769 186.919 13.6016 188.707 12.6389C190.494 11.6487 192.489 11.1536 194.689 11.1536C196.89 11.1536 198.884 11.6487 200.672 12.6389C202.459 13.6016 203.862 14.9769 204.88 16.7647C205.925 18.5526 206.448 20.6155 206.448 22.9535C206.448 25.2915 205.911 27.3544 204.839 29.1423C203.793 30.9302 202.363 32.3192 200.548 33.3094C198.76 34.2721 196.752 34.7535 194.524 34.7535ZM194.524 29.7199C195.569 29.7199 196.546 29.4724 197.453 28.9773C198.389 28.4547 199.131 27.6845 199.681 26.6668C200.231 25.6491 200.507 24.4113 200.507 22.9535C200.507 20.7806 199.929 19.1165 198.774 17.9612C197.646 16.7785 196.257 16.1871 194.607 16.1871C192.956 16.1871 191.567 16.7785 190.439 17.9612C189.339 19.1165 188.789 20.7806 188.789 22.9535C188.789 25.1265 189.325 26.8043 190.398 27.9871C191.498 29.1423 192.874 29.7199 194.524 29.7199Z" fill="white"/>
<path d="M212.376 8.80183C211.331 8.80183 210.465 8.48552 209.777 7.85288C209.117 7.19275 208.787 6.38133 208.787 5.41863C208.787 4.45593 209.117 3.65826 209.777 3.02563C210.465 2.36549 211.331 2.03542 212.376 2.03542C213.394 2.03542 214.233 2.36549 214.893 3.02563C215.553 3.65826 215.883 4.45593 215.883 5.41863C215.883 6.38133 215.553 7.19275 214.893 7.85288C214.233 8.48552 213.394 8.80183 212.376 8.80183ZM215.223 38.1367C215.223 40.6672 214.591 42.4826 213.325 43.5828C212.088 44.7106 210.3 45.2744 207.962 45.2744H205.404V40.3647H207.054C207.934 40.3647 208.553 40.1859 208.911 39.8283C209.268 39.4982 209.447 38.9481 209.447 38.1779V11.5249H215.223V38.1367Z" fill="white"/>
<path d="M240.941 22.4584C240.941 23.2836 240.886 24.0263 240.776 24.6864H224.066C224.203 26.3367 224.781 27.6295 225.799 28.5647C226.816 29.4999 228.068 29.9675 229.553 29.9675C231.699 29.9675 233.225 29.046 234.133 27.2032H240.363C239.703 29.4036 238.438 31.219 236.567 32.6493C234.697 34.0521 232.4 34.7535 229.677 34.7535C227.477 34.7535 225.496 34.2721 223.736 33.3094C222.003 32.3192 220.641 30.9302 219.651 29.1423C218.688 27.3544 218.207 25.2915 218.207 22.9535C218.207 20.588 218.688 18.5114 219.651 16.7235C220.614 14.9356 221.962 13.5603 223.695 12.5976C225.427 11.6349 227.422 11.1536 229.677 11.1536C231.85 11.1536 233.789 11.6212 235.494 12.5564C237.227 13.4916 238.561 14.8256 239.497 16.5584C240.459 18.2638 240.941 20.2305 240.941 22.4584ZM234.958 20.8081C234.931 19.3228 234.394 18.14 233.349 17.2598C232.304 16.3522 231.025 15.8983 229.512 15.8983C228.082 15.8983 226.871 16.3384 225.881 17.2186C224.919 18.0713 224.327 19.2678 224.107 20.8081H234.958Z" fill="white"/>
<path d="M242.434 22.9535C242.434 20.588 242.915 18.5251 243.878 16.7647C244.84 14.9769 246.174 13.6016 247.88 12.6389C249.585 11.6487 251.538 11.1536 253.738 11.1536C256.572 11.1536 258.91 11.8687 260.752 13.299C262.623 14.7018 263.874 16.6822 264.507 19.2403H258.277C257.947 18.25 257.383 17.4799 256.585 16.9298C255.815 16.3522 254.852 16.0633 253.697 16.0633C252.047 16.0633 250.74 16.6685 249.778 17.8787C248.815 19.0615 248.334 20.7531 248.334 22.9535C248.334 25.1265 248.815 26.8181 249.778 28.0283C250.74 29.2111 252.047 29.8025 253.697 29.8025C256.035 29.8025 257.562 28.7572 258.277 26.6668H264.507C263.874 29.1423 262.623 31.109 260.752 32.5668C258.882 34.0246 256.544 34.7535 253.738 34.7535C251.538 34.7535 249.585 34.2721 247.88 33.3094C246.174 32.3192 244.84 30.9439 243.878 29.1836C242.915 27.3957 242.434 25.319 242.434 22.9535Z" fill="white"/>
<path d="M274.226 16.2696V27.3269C274.226 28.0971 274.405 28.661 274.762 29.0185C275.147 29.3486 275.78 29.5136 276.66 29.5136H279.342V34.3822H275.711C270.843 34.3822 268.409 32.0167 268.409 27.2857V16.2696H265.685V11.5249H268.409V5.87247H274.226V11.5249H279.342V16.2696H274.226Z" fill="white"/>
<path d="M291.006 34.7535C289.135 34.7535 287.457 34.4234 285.972 33.7633C284.487 33.0756 283.304 32.1542 282.424 30.999C281.571 29.8437 281.104 28.5647 281.021 27.1619H286.839C286.949 28.0421 287.375 28.771 288.118 29.3486C288.888 29.9262 289.837 30.215 290.964 30.215C292.065 30.215 292.917 29.995 293.522 29.5549C294.155 29.1148 294.471 28.5509 294.471 27.8633C294.471 27.1206 294.086 26.5705 293.316 26.213C292.573 25.8279 291.377 25.4153 289.727 24.9752C288.021 24.5626 286.618 24.1363 285.518 23.6962C284.446 23.2561 283.51 22.5822 282.713 21.6745C281.942 20.7668 281.557 19.5428 281.557 18.0025C281.557 16.7372 281.915 15.582 282.63 14.5368C283.373 13.4916 284.418 12.6664 285.766 12.0613C287.141 11.4561 288.75 11.1536 290.593 11.1536C293.316 11.1536 295.489 11.8412 297.112 13.2165C298.735 14.5643 299.629 16.3934 299.794 18.7039H294.265C294.183 17.7962 293.797 17.0811 293.11 16.5584C292.45 16.0083 291.556 15.7333 290.428 15.7333C289.383 15.7333 288.571 15.9258 287.994 16.3109C287.444 16.696 287.169 17.2323 287.169 17.92C287.169 18.6901 287.554 19.2815 288.324 19.6941C289.094 20.0792 290.29 20.478 291.913 20.8906C293.564 21.3032 294.925 21.7295 295.998 22.1696C297.071 22.6097 297.992 23.2973 298.762 24.2325C299.56 25.1402 299.973 26.3505 300 27.8633C300 29.1836 299.629 30.3663 298.886 31.4115C298.171 32.4568 297.126 33.2819 295.75 33.8871C294.403 34.4647 292.821 34.7535 291.006 34.7535Z" fill="white"/>
</svg>
